<svg width="104" height="25" viewBox="0 0 104 25" fill="none" xmlns="http://www.w3.org/2000/svg">
<rect x="0.5" y="0.5" width="103" height="23.6406" stroke="black"/>
<g clip-path="url(#clip0_1_33)">
<path d="M63.1916 11.9239C63.1916 5.51974 58 0.328125 51.5957 0.328125C45.1916 0.328125 40 5.51974 40 11.9239C40 17.7116 44.2404 22.5089 49.7839 23.3789V15.2758H46.8397V11.9239H49.7839V9.36922C49.7839 6.46302 51.5152 4.85773 54.1638 4.85773C55.4321 4.85773 56.7596 5.08421 56.7596 5.08421V7.93786H55.2974C53.8569 7.93786 53.4076 8.83178 53.4076 9.74971V11.9239H56.6236L56.1096 15.2758H53.4076V23.3789C58.9512 22.5089 63.1916 17.7116 63.1916 11.9239Z" fill="#C67A88"/>
</g>
<path d="M23.6 5.36828C23.6 4.09229 22.556 3.04829 21.28 3.04829H2.72002C1.44403 3.04829 0.400024 4.09229 0.400024 5.36828V19.2883C0.400024 20.5643 1.44403 21.6083 2.72002 21.6083H21.28C22.556 21.6083 23.6 20.5643 23.6 19.2883V5.36828ZM21.28 5.36828L12 11.1683L2.72002 5.36828H21.28ZM21.28 19.2883H2.72002V7.68828L12 13.4883L21.28 7.68828V19.2883Z" fill="#C67A88"/>
<g clip-path="url(#clip1_1_33)">
<path d="M92.5 3.39902C95.5727 3.39902 95.9365 3.41249 97.1449 3.4664C98.268 3.51582 98.8744 3.70449 99.2787 3.86172C99.8133 4.06836 100.2 4.31992 100.599 4.71972C101.004 5.12402 101.251 5.50585 101.457 6.04042C101.615 6.44473 101.803 7.05567 101.853 8.17421C101.907 9.3871 101.92 9.75097 101.92 12.8191C101.92 15.8918 101.907 16.2556 101.853 17.464C101.803 18.5871 101.615 19.1935 101.457 19.5978C101.251 20.1324 100.999 20.5187 100.599 20.9185C100.195 21.3228 99.8133 21.5699 99.2787 21.7765C98.8744 21.9338 98.2635 22.1224 97.1449 22.1718C95.932 22.2258 95.5682 22.2392 92.5 22.2392C89.4273 22.2392 89.0635 22.2258 87.8551 22.1718C86.732 22.1224 86.1256 21.9338 85.7213 21.7765C85.1867 21.5699 84.8004 21.3183 84.4006 20.9185C83.9963 20.5142 83.7492 20.1324 83.5426 19.5978C83.3853 19.1935 83.1967 18.5826 83.1473 17.464C83.0934 16.2511 83.0799 15.8873 83.0799 12.8191C83.0799 9.74648 83.0934 9.38262 83.1473 8.17421C83.1967 7.05118 83.3853 6.44473 83.5426 6.04042C83.7492 5.50585 84.0008 5.11953 84.4006 4.71972C84.8049 4.31542 85.1867 4.06836 85.7213 3.86172C86.1256 3.70449 86.7365 3.51582 87.8551 3.4664C89.0635 3.41249 89.4273 3.39902 92.5 3.39902ZM92.5 1.32812C89.3779 1.32812 88.9871 1.3416 87.7607 1.39551C86.5389 1.44941 85.6988 1.64707 84.9711 1.93008C84.2119 2.22656 83.5695 2.61739 82.9316 3.25977C82.2893 3.89766 81.8984 4.54004 81.602 5.29472C81.3189 6.02696 81.1213 6.86249 81.0674 8.08437C81.0135 9.31524 81 9.70605 81 12.8281C81 15.9502 81.0135 16.341 81.0674 17.5674C81.1213 18.7892 81.3189 19.6293 81.602 20.357C81.8984 21.1162 82.2893 21.7586 82.9316 22.3965C83.5695 23.0343 84.2119 23.4297 84.9666 23.7217C85.6988 24.0047 86.5344 24.2023 87.7562 24.2562C88.9826 24.3101 89.3734 24.3236 92.4955 24.3236C95.6176 24.3236 96.0084 24.3101 97.2348 24.2562C98.4566 24.2023 99.2967 24.0047 100.024 23.7217C100.779 23.4297 101.422 23.0343 102.059 22.3965C102.697 21.7586 103.093 21.1162 103.385 20.3615C103.668 19.6293 103.865 18.7937 103.919 17.5719C103.973 16.3455 103.986 15.9547 103.986 12.8326C103.986 9.71055 103.973 9.31973 103.919 8.09336C103.865 6.87149 103.668 6.03145 103.385 5.30371C103.102 4.54004 102.711 3.89766 102.068 3.25977C101.431 2.62188 100.788 2.22656 100.033 1.93457C99.3012 1.65156 98.4656 1.45391 97.2438 1.4C96.0129 1.3416 95.6221 1.32812 92.5 1.32812Z" fill="#C67A88"/>
<path d="M92.5 6.9209C89.2387 6.9209 86.5928 9.5668 86.5928 12.8281C86.5928 16.0894 89.2387 18.7353 92.5 18.7353C95.7613 18.7353 98.4072 16.0894 98.4072 12.8281C98.4072 9.5668 95.7613 6.9209 92.5 6.9209ZM92.5 16.6599C90.3842 16.6599 88.6682 14.9439 88.6682 12.8281C88.6682 10.7123 90.3842 8.99629 92.5 8.99629C94.6158 8.99629 96.3318 10.7123 96.3318 12.8281C96.3318 14.9439 94.6158 16.6599 92.5 16.6599Z" fill="#C67A88"/>
<path d="M100.02 6.68722C100.02 7.45089 99.4 8.06632 98.6408 8.06632C97.8771 8.06632 97.2617 7.4464 97.2617 6.68722C97.2617 5.92354 97.8816 5.30811 98.6408 5.30811C99.4 5.30811 100.02 5.92803 100.02 6.68722Z" fill="#C67A88"/>
</g>
<defs>
<clipPath id="clip0_1_33">
<rect width="24" height="24" fill="white" transform="translate(40 0.328125)"/>
</clipPath>
<clipPath id="clip1_1_33">
<rect width="23" height="23" fill="white" transform="translate(81 1.32812)"/>
</clipPath>
</defs>
</svg>
